%TF.GenerationSoftware,KiCad,Pcbnew,(5.1.10)-1*%
%TF.CreationDate,2021-08-04T21:52:32+08:00*%
%TF.ProjectId,__,3a502e6b-6963-4616-945f-706362585858,rev?*%
%TF.SameCoordinates,Original*%
%TF.FileFunction,Legend,Top*%
%TF.FilePolarity,Positive*%
%FSLAX46Y46*%
G04 Gerber Fmt 4.6, Leading zero omitted, Abs format (unit mm)*
G04 Created by KiCad (PCBNEW (5.1.10)-1) date 2021-08-04 21:52:32*
%MOMM*%
%LPD*%
G01*
G04 APERTURE LIST*
%ADD10C,0.120000*%
%ADD11C,0.150000*%
G04 APERTURE END LIST*
D10*
%TO.C,4025*%
X275896000Y-30166000D02*
X275896000Y-34366000D01*
X275896000Y-34366000D02*
X281096000Y-34366000D01*
%TO.C,1612*%
X263936000Y-32516000D02*
X263936000Y-33966000D01*
X263936000Y-33966000D02*
X265786000Y-33966000D01*
%TO.C,6035*%
X292296000Y-30216000D02*
X285746000Y-30216000D01*
X285746000Y-30216000D02*
X285746000Y-34116000D01*
X285746000Y-34116000D02*
X292296000Y-34116000D01*
%TO.C,2025*%
X262216000Y-36486000D02*
X262216000Y-39286000D01*
X262216000Y-39286000D02*
X265516000Y-39286000D01*
%TO.C,2016*%
X270596000Y-31816000D02*
X270596000Y-34116000D01*
X270596000Y-34116000D02*
X273296000Y-34116000D01*
%TO.C,5032*%
X266866000Y-36336000D02*
X266866000Y-40036000D01*
X266866000Y-40036000D02*
X272166000Y-40036000D01*
%TO.C,MC-156*%
X302776000Y-35726000D02*
X303066000Y-35726000D01*
X303066000Y-35726000D02*
X303066000Y-38626000D01*
X303066000Y-38626000D02*
X302776000Y-38626000D01*
X297576000Y-35726000D02*
X301056000Y-35726000D01*
X295566000Y-36676000D02*
X295566000Y-35726000D01*
X295566000Y-38626000D02*
X295566000Y-37676000D01*
X295566000Y-35726000D02*
X295856000Y-35726000D01*
X295566000Y-38626000D02*
X295856000Y-38626000D01*
X301056000Y-38626000D02*
X297576000Y-38626000D01*
X295566000Y-37676000D02*
G75*
G03*
X295566000Y-36676000I0J500000D01*
G01*
%TO.C,HC49*%
X290046000Y-34906000D02*
X274071000Y-34906000D01*
X274071000Y-34906000D02*
X274071000Y-40006000D01*
X274071000Y-40006000D02*
X290046000Y-40006000D01*
%TO.C,SOT669*%
X217546000Y-38736000D02*
X217746000Y-38736000D01*
X217746000Y-38736000D02*
X217746000Y-34436000D01*
X217746000Y-34436000D02*
X217596000Y-34436000D01*
X212696000Y-34436000D02*
X212546000Y-34436000D01*
X212546000Y-34436000D02*
X212546000Y-38736000D01*
X212546000Y-38736000D02*
X212746000Y-38736000D01*
%TO.C,SOT223*%
X231596000Y-33866000D02*
X230336000Y-33866000D01*
X224776000Y-33866000D02*
X226036000Y-33866000D01*
X231596000Y-37626000D02*
X231596000Y-33866000D01*
X224776000Y-39876000D02*
X224776000Y-33866000D01*
%TO.C,SOT89*%
X210196000Y-35836000D02*
X211506000Y-35836000D01*
X211506000Y-35836000D02*
X211506000Y-38556000D01*
X207016000Y-39696000D02*
X207016000Y-38556000D01*
X206786000Y-35836000D02*
X208096000Y-35836000D01*
X206786000Y-38556000D02*
X206786000Y-35836000D01*
X206786000Y-38556000D02*
X207016000Y-38556000D01*
X211506000Y-38556000D02*
X211276000Y-38556000D01*
%TO.C,SOT28*%
X205506000Y-38556000D02*
X205506000Y-36756000D01*
X202286000Y-36756000D02*
X202286000Y-39706000D01*
%TO.C,SOT26*%
X200506000Y-38536000D02*
X200506000Y-36736000D01*
X197286000Y-36736000D02*
X197286000Y-39686000D01*
%TO.C,SOT25*%
X196106000Y-38376000D02*
X196106000Y-36576000D01*
X192886000Y-36576000D02*
X192886000Y-39026000D01*
%TO.C,SOT23*%
X191466000Y-37306000D02*
X190536000Y-37306000D01*
X188306000Y-37306000D02*
X189236000Y-37306000D01*
X188306000Y-37306000D02*
X188306000Y-39466000D01*
X191466000Y-37306000D02*
X191466000Y-38766000D01*
%TO.C,SMC*%
X244896000Y-38916000D02*
X244896000Y-32416000D01*
X244896000Y-38916000D02*
X256096000Y-38916000D01*
X244896000Y-32416000D02*
X256096000Y-32416000D01*
%TO.C,SMB*%
X239726000Y-39706000D02*
X244026000Y-39706000D01*
X244026000Y-39706000D02*
X244026000Y-32406000D01*
X239726000Y-39706000D02*
X239726000Y-32406000D01*
%TO.C,SMA*%
X234276000Y-39486000D02*
X237576000Y-39486000D01*
X237576000Y-39486000D02*
X237576000Y-32586000D01*
X234276000Y-39486000D02*
X234276000Y-32586000D01*
%TO.C,SOD123*%
X218996000Y-37706000D02*
X218996000Y-39706000D01*
X218996000Y-39706000D02*
X222896000Y-39706000D01*
X218996000Y-37706000D02*
X222896000Y-37706000D01*
%TO.C,SOD323*%
X219136000Y-33336000D02*
X219136000Y-35036000D01*
X219136000Y-35036000D02*
X222286000Y-35036000D01*
X219136000Y-33336000D02*
X222286000Y-33336000D01*
%TO.C,SOD523*%
X207886000Y-31736000D02*
X207886000Y-32936000D01*
X209736000Y-31736000D02*
X207886000Y-31736000D01*
X209736000Y-32936000D02*
X207886000Y-32936000D01*
%TO.C,SOD923*%
X190596000Y-34496000D02*
X189296000Y-34496000D01*
X190596000Y-33696000D02*
X189296000Y-33696000D01*
X189296000Y-33696000D02*
X189296000Y-34496000D01*
%TO.C,NR80xx*%
X184346000Y-40136000D02*
X184346000Y-30136000D01*
X176146000Y-40136000D02*
X176146000Y-30136000D01*
%TO.C,NR60xx*%
X173986000Y-39126000D02*
X173986000Y-31126000D01*
X167786000Y-39126000D02*
X167786000Y-31126000D01*
%TO.C,NR50xx*%
X165166000Y-38596000D02*
X165166000Y-31696000D01*
X160066000Y-38596000D02*
X160066000Y-31696000D01*
%TO.C,NR40xx*%
X157496000Y-38146000D02*
X157496000Y-32146000D01*
X153296000Y-38146000D02*
X153296000Y-32146000D01*
%TO.C,NR30xx*%
X145286000Y-39786000D02*
X150286000Y-39786000D01*
X145286000Y-36586000D02*
X150286000Y-36586000D01*
%TO.C,NR24xx*%
X144816000Y-34366000D02*
X149216000Y-34366000D01*
X144816000Y-31766000D02*
X149216000Y-31766000D01*
%TO.C,L1812*%
X139769748Y-39866000D02*
X142542252Y-39866000D01*
X139769748Y-36446000D02*
X142542252Y-36446000D01*
%TO.C,L1210*%
X139633936Y-34406000D02*
X140838064Y-34406000D01*
X139633936Y-31686000D02*
X140838064Y-31686000D01*
%TO.C,L1206*%
X134060758Y-39666000D02*
X135731242Y-39666000D01*
X134060758Y-37846000D02*
X135731242Y-37846000D01*
%TO.C,L0805*%
X134445758Y-35506000D02*
X135266242Y-35506000D01*
X134445758Y-34386000D02*
X135266242Y-34386000D01*
%TO.C,L0603*%
X129474733Y-39976000D02*
X129817267Y-39976000D01*
X129474733Y-38956000D02*
X129817267Y-38956000D01*
%TO.C,L0402*%
X129555800Y-36836000D02*
X129756200Y-36836000D01*
X129555800Y-36116000D02*
X129756200Y-36116000D01*
%TO.C,TC7343*%
X113531000Y-39756000D02*
X113531000Y-31521000D01*
X109011000Y-39756000D02*
X113531000Y-39756000D01*
X109011000Y-31521000D02*
X109011000Y-39756000D01*
%TO.C,TC6032*%
X119056000Y-39181000D02*
X119056000Y-32246000D01*
X115636000Y-39181000D02*
X119056000Y-39181000D01*
X115636000Y-32246000D02*
X115636000Y-39181000D01*
%TO.C,TC3528*%
X119886000Y-38956000D02*
X124271000Y-38956000D01*
X119886000Y-35936000D02*
X119886000Y-38956000D01*
X124271000Y-35936000D02*
X119886000Y-35936000D01*
%TO.C,TC3216*%
X120136000Y-34031000D02*
X124221000Y-34031000D01*
X120136000Y-32161000D02*
X120136000Y-34031000D01*
X124221000Y-32161000D02*
X120136000Y-32161000D01*
%TO.C,C6.3x3*%
X101154750Y-39339750D02*
X101942250Y-39339750D01*
X101548500Y-39733500D02*
X101548500Y-38946000D01*
X105741563Y-38706000D02*
X106806000Y-37641563D01*
X101050437Y-38706000D02*
X99986000Y-37641563D01*
X101050437Y-38706000D02*
X102336000Y-38706000D01*
X105741563Y-38706000D02*
X104456000Y-38706000D01*
X106806000Y-37641563D02*
X106806000Y-31886000D01*
X99986000Y-37641563D02*
X99986000Y-31886000D01*
X99986000Y-31886000D02*
X102336000Y-31886000D01*
X106806000Y-31886000D02*
X104456000Y-31886000D01*
%TO.C,C4x5.4*%
X94956000Y-38956000D02*
X95456000Y-38956000D01*
X95206000Y-39206000D02*
X95206000Y-38706000D01*
X97961563Y-38466000D02*
X99026000Y-37401563D01*
X95570437Y-38466000D02*
X94506000Y-37401563D01*
X95570437Y-38466000D02*
X95706000Y-38466000D01*
X97961563Y-38466000D02*
X97826000Y-38466000D01*
X99026000Y-37401563D02*
X99026000Y-33946000D01*
X94506000Y-37401563D02*
X94506000Y-33946000D01*
X94506000Y-33946000D02*
X95706000Y-33946000D01*
X99026000Y-33946000D02*
X97826000Y-33946000D01*
%TO.C,C4x3*%
X88086000Y-39346000D02*
X88586000Y-39346000D01*
X88336000Y-39596000D02*
X88336000Y-39096000D01*
X91091563Y-38856000D02*
X92156000Y-37791563D01*
X88700437Y-38856000D02*
X87636000Y-37791563D01*
X88700437Y-38856000D02*
X88836000Y-38856000D01*
X91091563Y-38856000D02*
X90956000Y-38856000D01*
X92156000Y-37791563D02*
X92156000Y-34336000D01*
X87636000Y-37791563D02*
X87636000Y-34336000D01*
X87636000Y-34336000D02*
X88836000Y-34336000D01*
X92156000Y-34336000D02*
X90956000Y-34336000D01*
%TO.C,C3x5.3*%
X82013500Y-38173500D02*
X82388500Y-38173500D01*
X82201000Y-38361000D02*
X82201000Y-37986000D01*
X84696000Y-37556563D02*
X85396000Y-36856563D01*
X82576000Y-37556563D02*
X81876000Y-36856563D01*
X85396000Y-36856563D02*
X85396000Y-34226000D01*
X81876000Y-36856563D02*
X81876000Y-34226000D01*
X81876000Y-34226000D02*
X82576000Y-34226000D01*
X85396000Y-34226000D02*
X84696000Y-34226000D01*
%TO.C,2220C*%
X61306000Y-37861748D02*
X61306000Y-35030252D01*
X56086000Y-37861748D02*
X56086000Y-35030252D01*
%TO.C,1812C*%
X67106000Y-38107252D02*
X67106000Y-35784748D01*
X63686000Y-38107252D02*
X63686000Y-35784748D01*
%TO.C,1210C*%
X72456000Y-38357252D02*
X72456000Y-36934748D01*
X69736000Y-38357252D02*
X69736000Y-36934748D01*
%TO.C,1206C*%
X76606000Y-38457252D02*
X76606000Y-37034748D01*
X74786000Y-38457252D02*
X74786000Y-37034748D01*
%TO.C,0805C*%
X64934748Y-33181000D02*
X65457252Y-33181000D01*
X64934748Y-31711000D02*
X65457252Y-31711000D01*
%TO.C,0603C*%
X70749733Y-34776000D02*
X71042267Y-34776000D01*
X70749733Y-33756000D02*
X71042267Y-33756000D01*
%TO.C,0402C*%
X75412665Y-34806000D02*
X75644335Y-34806000D01*
X75412665Y-34086000D02*
X75644335Y-34086000D01*
%TO.C,2512R*%
X32135500Y-38372064D02*
X32135500Y-34017936D01*
X35555500Y-38372064D02*
X35555500Y-34017936D01*
%TO.C,2010R*%
X37692500Y-38357064D02*
X37692500Y-35302936D01*
X40412500Y-38357064D02*
X40412500Y-35302936D01*
%TO.C,1210R*%
X42777500Y-38442737D02*
X42777500Y-36995263D01*
X45487500Y-38442737D02*
X45487500Y-36995263D01*
%TO.C,1206R*%
X48048500Y-38446064D02*
X48048500Y-36991936D01*
X49868500Y-38446064D02*
X49868500Y-36991936D01*
%TO.C,0805R*%
X48604436Y-33428000D02*
X49058564Y-33428000D01*
X48604436Y-34898000D02*
X49058564Y-34898000D01*
%TO.C,0603R*%
X43877776Y-33831000D02*
X44387224Y-33831000D01*
X43877776Y-34876000D02*
X44387224Y-34876000D01*
%TO.C,0402R*%
X38948379Y-31814500D02*
X39283621Y-31814500D01*
X38948379Y-32574500D02*
X39283621Y-32574500D01*
%TO.C,REF\u002A\u002A*%
D11*
X-637333Y7201619D02*
X-970666Y7677809D01*
X-1208761Y7201619D02*
X-1208761Y8201619D01*
X-827809Y8201619D01*
X-732571Y8154000D01*
X-684952Y8106380D01*
X-637333Y8011142D01*
X-637333Y7868285D01*
X-684952Y7773047D01*
X-732571Y7725428D01*
X-827809Y7677809D01*
X-1208761Y7677809D01*
X-208761Y7725428D02*
X124571Y7725428D01*
X267428Y7201619D02*
X-208761Y7201619D01*
X-208761Y8201619D01*
X267428Y8201619D01*
X1029333Y7725428D02*
X695999Y7725428D01*
X695999Y7201619D02*
X695999Y8201619D01*
X1172190Y8201619D01*
X1695999Y8201619D02*
X1695999Y7963523D01*
X1457904Y8058761D02*
X1695999Y7963523D01*
X1934095Y8058761D01*
X1553142Y7773047D02*
X1695999Y7963523D01*
X1838857Y7773047D01*
X2457904Y8201619D02*
X2457904Y7963523D01*
X2219809Y8058761D02*
X2457904Y7963523D01*
X2695999Y8058761D01*
X2315047Y7773047D02*
X2457904Y7963523D01*
X2600761Y7773047D01*
X-1333333Y-952380D02*
X-1666666Y-476190D01*
X-1904761Y-952380D02*
X-1904761Y47619D01*
X-1523809Y47619D01*
X-1428571Y0D01*
X-1380952Y-47619D01*
X-1333333Y-142857D01*
X-1333333Y-285714D01*
X-1380952Y-380952D01*
X-1428571Y-428571D01*
X-1523809Y-476190D01*
X-1904761Y-476190D01*
X-904761Y-428571D02*
X-571428Y-428571D01*
X-428571Y-952380D02*
X-904761Y-952380D01*
X-904761Y47619D01*
X-428571Y47619D01*
X333333Y-428571D02*
X0Y-428571D01*
X0Y-952380D02*
X0Y47619D01*
X476190Y47619D01*
X999999Y47619D02*
X999999Y-190476D01*
X761904Y-95238D02*
X999999Y-190476D01*
X1238095Y-95238D01*
X857142Y-380952D02*
X999999Y-190476D01*
X1142857Y-380952D01*
X1761904Y47619D02*
X1761904Y-190476D01*
X1523809Y-95238D02*
X1761904Y-190476D01*
X1999999Y-95238D01*
X1619047Y-380952D02*
X1761904Y-190476D01*
X1904761Y-380952D01*
X-8137333Y601619D02*
X-8470666Y1077809D01*
X-8708761Y601619D02*
X-8708761Y1601619D01*
X-8327809Y1601619D01*
X-8232571Y1554000D01*
X-8184952Y1506380D01*
X-8137333Y1411142D01*
X-8137333Y1268285D01*
X-8184952Y1173047D01*
X-8232571Y1125428D01*
X-8327809Y1077809D01*
X-8708761Y1077809D01*
X-7708761Y1125428D02*
X-7375428Y1125428D01*
X-7232571Y601619D02*
X-7708761Y601619D01*
X-7708761Y1601619D01*
X-7232571Y1601619D01*
X-6470666Y1125428D02*
X-6804000Y1125428D01*
X-6804000Y601619D02*
X-6804000Y1601619D01*
X-6327809Y1601619D01*
X-5804000Y1601619D02*
X-5804000Y1363523D01*
X-6042095Y1458761D02*
X-5804000Y1363523D01*
X-5565904Y1458761D01*
X-5946857Y1173047D02*
X-5804000Y1363523D01*
X-5661142Y1173047D01*
X-5042095Y1601619D02*
X-5042095Y1363523D01*
X-5280190Y1458761D02*
X-5042095Y1363523D01*
X-4804000Y1458761D01*
X-5184952Y1173047D02*
X-5042095Y1363523D01*
X-4899238Y1173047D01*
%TD*%
M02*
