%TF.GenerationSoftware,KiCad,Pcbnew,(5.1.10)-1*%
%TF.CreationDate,2021-08-04T21:52:32+08:00*%
%TF.ProjectId,__,3a502e6b-6963-4616-945f-706362585858,rev?*%
%TF.SameCoordinates,Original*%
%TF.FileFunction,Profile,NP*%
%FSLAX46Y46*%
G04 Gerber Fmt 4.6, Leading zero omitted, Abs format (unit mm)*
G04 Created by KiCad (PCBNEW (5.1.10)-1) date 2021-08-04 21:52:32*
%MOMM*%
%LPD*%
G01*
G04 APERTURE LIST*
%TA.AperFunction,Profile*%
%ADD10C,0.100000*%
%TD*%
%TA.AperFunction,Profile*%
%ADD11C,0.050000*%
%TD*%
G04 APERTURE END LIST*
D10*
X315576000Y-42796000D02*
G75*
G03*
X315576000Y-42796000I-1000000J0D01*
G01*
D11*
X319796000Y-45212000D02*
X319796000Y-25146000D01*
X17796000Y-45212000D02*
X319796000Y-45212000D01*
X17796000Y-25146000D02*
X17796000Y-45212000D01*
X17796000Y-25146000D02*
X319796000Y-25146000D01*
D10*
%TO.C,MIPI CON30 0.4mm*%
X114716000Y-29606000D02*
X114716000Y-28956000D01*
X114716000Y-28956000D02*
X115036000Y-28956000D01*
X115036000Y-28956000D02*
X115036000Y-29606000D01*
X115036000Y-29606000D02*
X114716000Y-29606000D01*
X114716000Y-27436000D02*
X114716000Y-26786000D01*
X114716000Y-26786000D02*
X115036000Y-26786000D01*
X115036000Y-26786000D02*
X115036000Y-27436000D01*
X115036000Y-27436000D02*
X114716000Y-27436000D01*
X122216000Y-29606000D02*
X122216000Y-28956000D01*
X122216000Y-28956000D02*
X122536000Y-28956000D01*
X122536000Y-28956000D02*
X122536000Y-29606000D01*
X122536000Y-29606000D02*
X122216000Y-29606000D01*
X122216000Y-27436000D02*
X122216000Y-26786000D01*
X122216000Y-26786000D02*
X122536000Y-26786000D01*
X122536000Y-26786000D02*
X122536000Y-27436000D01*
X122536000Y-27436000D02*
X122216000Y-27436000D01*
%TD*%
M02*
